#!OML:ASF F:\VICON\USERDATA\INSTALL\SteveWalk\SteveWalk.ASF
:FULLY-SPECIFIED
:DEGREES
91
root -0.417491 16.102 -25.8621 18.03 7.70261 4.67729
lowerback -16.7676 -3.78055 -5.96739
upperback -5.05264 -3.93876 -0.61605
thorax 4.31694 -1.94927 1.91272
lowerneck -0.866306 -2.37443 -0.292129
upperneck 7.12503 -3.30506 2.05514
head 2.43518 -1.59747 0.622235
rclavicle -1.54648e-014 4.07509e-015
rhumerus -89.6763 -34.4096 -8.28171
rradius 10.6315
rwrist 51.4976
rhand -12.7834 -34.373
rfingers 7.12502
rthumb 13.302 -63.9285
lclavicle -1.54648e-014 4.07509e-015
lhumerus -10.8421 -7.60809 78.8095
lradius 41.0489
lwrist 5.54754
lhand -20.0901 -17.6108
lfingers 7.12502
lthumb 6.25283 12.2769
rfemur -52.0321 -9.66285 22.9108
rtibia 16.9039
rfoot -12.4673 4.28951
rtoes -20.0437
lfemur -3.43486 7.75768 -25.4705
ltibia 17.9811
lfoot -23.4217 -16.9874
ltoes -6.84808
92
root -0.407696 16.0628 -25.6339 18.2324 8.29264 4.81142
lowerback -16.9635 -3.94673 -5.90333
upperback -5.08426 -4.15714 -0.52779
thorax 4.4069 -2.05686 1.91322
lowerneck -0.702749 -2.47968 -0.308807
upperneck 6.89445 -3.42417 1.8068
head 2.32536 -1.66642 0.546296
rclavicle 4.29639e-014 4.87022e-015
rhumerus -91.2783 -33.9255 -5.39604
rradius 10.5505
rwrist 53.2735
rhand -12.8621 -34.2076
rfingers 7.12502
rthumb 13.2261 -63.768
lclavicle 4.29639e-014 4.87022e-015
lhumerus -10.4204 -7.63637 78.8243
lradius 41.9158
lwrist 6.03073
lhand -20.6196 -17.9285
lfingers 7.12502
lthumb 5.7416 11.9737
rfemur -52.6133 -10.3186 23.2613
rtibia 16.4706
rfoot -12.953 5.56303
rtoes -16.0994
lfemur -2.26649 7.16322 -25.2869
ltibia 16.9926
lfoot -22.1019 -17.2871
ltoes -5.25758
93
root -0.394127 16.0441 -25.3973 18.4776 8.95426 5.02355
lowerback -17.1771 -4.15246 -5.83628
upperback -5.16345 -4.42672 -0.464686
thorax 4.45714 -2.18774 1.8738
lowerneck -0.575504 -2.56168 -0.337929
upperneck 6.76382 -3.51507 1.56108
head 2.25532 -1.72022 0.473785
rclavicle -2.46291e-014 5.46658e-016
rhumerus -94.0704 -33.4262 -0.18425
rradius 10.3864
rwrist 57.0523
rhand -12.969 -33.8014
rfingers 7.12502
rthumb 13.1231 -63.3685
lclavicle -2.46291e-014 5.46658e-016
lhumerus -10.3254 -7.43981 78.8438
lradius 42.896
lwrist 5.93313
lhand -21.1518 -18.3161
lfingers 7.12502
lthumb 5.22776 11.5994
rfemur -52.972 -11.3196 23.8162
rtibia 16.3124
rfoot -13.0857 5.94836
rtoes -18.3303
lfemur -1.31031 6.52105 -25.1396
ltibia 16.3904
lfoot -22.356 -16.8841
ltoes -8.55272
94
root -0.392437 16.0004 -25.1792 18.6544 8.95755 5.26964
lowerback -16.935 -4.20447 -6.0373
upperback -5.31137 -4.48955 -0.377686
thorax 4.19639 -2.21148 2.08466
lowerneck -0.774829 -2.54205 -0.410392
upperneck 6.86373 -3.47718 1.37954
head 2.3212 -1.70631 0.426456
rclavicle -2.64752e-015 1.32922e-014
rhumerus -97.4467 -32.8975 6.43023
rradius 10.2215
rwrist 62.0192
rhand -13.0551 -33.4706
rfingers 7.12502
rthumb 13.0401 -63.043
lclavicle -2.64752e-015 1.32922e-014
lhumerus -10.2103 -6.8186 78.8856
lradius 43.9809
lwrist 5.94668
lhand -20.9879 -18.4394
lfingers 7.12502
lthumb 5.38606 11.4722
rfemur -53.2297 -10.5511 23.0774
rtibia 16.5998
rfoot -13.1379 4.59143
rtoes -20.9769
lfemur -0.334577 5.74953 -25.2432
ltibia 15.8199
lfoot -22.3718 -15.8195
ltoes -11.6698
